<svg height="512" viewBox="0 0 64 64" width="512" xmlns="http://www.w3.org/2000/svg"><path d="m61.9 54.553-6-12a1 1 0 0 0 -.9-.553h-46a1 1 0 0 0 -.895.553l-6 12a1 1 0 0 0 -.105.447v3a2 2 0 0 0 2 2h56a2 2 0 0 0 2-2v-3a1 1 0 0 0 -.1-.447zm-52.282-10.553h44.764l5 10h-54.764zm-5.618 14v-2h56v2z"/><path d="m10 50h2v2h-2z"/><path d="m14 50h2v2h-2z"/><path d="m18 50h28v2h-28z"/><path d="m48 50h2v2h-2z"/><path d="m52 50h2v2h-2z"/><path d="m15 46h2v2h-2z"/><path d="m11 46h2v2h-2z"/><path d="m19 46h2v2h-2z"/><path d="m23 46h2v2h-2z"/><path d="m27 46h2v2h-2z"/><path d="m31 46h2v2h-2z"/><path d="m35 46h2v2h-2z"/><path d="m39 46h2v2h-2z"/><path d="m43 46h2v2h-2z"/><path d="m47 46h2v2h-2z"/><path d="m51 46h2v2h-2z"/><path d="m9 40h46a3 3 0 0 0 3-3v-30a3 3 0 0 0 -3-3h-46a3 3 0 0 0 -3 3v30a3 3 0 0 0 3 3zm-1-3v-23h22v24h-21a1 1 0 0 1 -1-1zm48-30v30a1 1 0 0 1 -1 1h-23v-32h23a1 1 0 0 1 1 1zm-47-1h21v6h-22v-5a1 1 0 0 1 1-1z"/><path d="m10 8h2v2h-2z"/><path d="m14 8h2v2h-2z"/><path d="m18 8h2v2h-2z"/><path d="m11 25h8a1 1 0 0 0 1-1v-6a1 1 0 0 0 -1-1h-8a1 1 0 0 0 -1 1v6a1 1 0 0 0 1 1zm1-6h6v4h-6z"/><path d="m22 18h6v2h-6z"/><path d="m22 22h6v2h-6z"/><path d="m10 29h4v2h-4z"/><path d="m16 29h12v2h-12z"/><path d="m10 33h18v2h-18z"/><path d="m39.293 17.707 1.414-1.414-2.293-2.293 2.293-2.293-1.414-1.414-3 3a1 1 0 0 0 0 1.414z"/><path d="m48.707 17.707 3-3a1 1 0 0 0 0-1.414l-3-3-1.414 1.414 2.293 2.293-2.293 2.293z"/><path d="m40.838 13h6.325v1.999h-6.325z" transform="matrix(.317 -.949 .949 .317 16.793 51.306)"/><path d="m36 21h4v2h-4z"/><path d="m42 21h8v2h-8z"/><path d="m38 25h6v2h-6z"/><path d="m46 25h4v2h-4z"/><path d="m36 29h4v2h-4z"/><path d="m42 29h6v2h-6z"/><path d="m38 33h8v2h-8z"/><path d="m48 33h2v2h-2z"/></svg>