<svg height="512pt" viewBox="0 -40 512 511" width="512pt" xmlns="http://www.w3.org/2000/svg"><path d="m512 371.554688v-371.054688h-512v371.054688h160.9375v30.050781h-30.039062v30h250.203124v-30h-30.039062v-30.050781zm-30-341.054688v230.992188h-452v-230.992188zm-452 260.992188h452v50.0625h-452zm291.0625 110.113281h-130.125v-30.050781h130.125zm0 0"/><path d="m210.941406 208.964844-49.546875-62.96875 49.546875-62.96875-23.574218-18.550782-64.144532 81.519532 64.144532 81.519531zm0 0"/><path d="m324.632812 227.515625 64.144532-81.519531-64.144532-81.519532-23.574218 18.550782 49.546875 62.96875-49.546875 62.96875zm0 0"/><path d="m241 65.058594h30v161.875h-30zm0 0"/></svg>